<svg xmlns="http://www.w3.org/2000/svg" viewBox="0 0 176 176">
    <path d="M158.77 138.65a3.5 3.5 0 0 1 0-7 1.71 1.71 0 0 0 1.71-1.71V98.69a1.71 1.71 0 0 0-1.71-1.69h-62.5a1.71 1.71 0 0 0-1.7 1.71v31.25a1.71 1.71 0 0 0 1.7 1.71h23.44a3.5 3.5 0 1 1 0 7H96.27a8.71 8.71 0 0 1-8.7-8.71V98.69a8.71 8.71 0 0 1 8.7-8.69h62.5a8.72 8.72 0 0 1 8.71 8.71v31.25a8.72 8.72 0 0 1-8.71 8.69Z"/>
    <path d="M144.66 175.11a6.12 6.12 0 0 1-5.83-4.28l-10.07-32.16a6.11 6.11 0 0 1 8.42-7.34l30.15 14.07a6.11 6.11 0 0 1 1.5 10.07 3.43 3.43 0 0 1-1.62.82L154.36 159l-4.67 13.11a3.42 3.42 0 0 1-1 1.44 6.08 6.08 0 0 1-4.03 1.56Zm-8.61-36.59 8.5 27.16 3.87-10.87a3.51 3.51 0 0 1 2.57-2.25l10.41-2.2ZM60.5 121.59H17.64a12.7 12.7 0 0 1-12.71-12.67V13.56A12.7 12.7 0 0 1 17.64.89H60.5a12.7 12.7 0 0 1 12.72 12.67v95.36a12.7 12.7 0 0 1-12.72 12.67ZM17.64 7.89a5.69 5.69 0 0 0-5.71 5.67v95.36a5.69 5.69 0 0 0 5.71 5.67H60.5a5.7 5.7 0 0 0 5.72-5.67V13.56a5.7 5.7 0 0 0-5.72-5.67Zm40.22 148.3H20.29a3.5 3.5 0 0 1-3.5-3.5V126a3.5 3.5 0 0 1 7 0v23.19h30.57V126a3.5 3.5 0 0 1 7 0v26.69a3.5 3.5 0 0 1-3.5 3.5Z"/>
    <path d="M39.07 82a18.34 18.34 0 1 1 0-36.66 18.34 18.34 0 1 1 0 36.66Zm0-29.66a11.34 11.34 0 1 0 0 22.66 11.34 11.34 0 1 0 0-22.66Zm5.44-26.69a5.87 5.87 0 0 1-5.44 5.44 5.64 5.64 0 0 1-5.43-5.44 5.64 5.64 0 0 1 5.43-5.44 5.44 5.44 0 0 1 5.44 5.44m0 117.69a3.5 3.5 0 0 1-3.5-3.5v-8.9a3.5 3.5 0 0 1 7 0v8.9a3.5 3.5 0 0 1-3.5 3.5Zm-10.87 0a3.5 3.5 0 0 1-3.5-3.5v-8.9a3.5 3.5 0 0 1 7 0v8.9a3.5 3.5 0 0 1-3.5 3.5Zm74.13-78.04a3.5 3.5 0 0 1-3.5-3.5V41c0-14.83 10.9-26.9 24.3-26.9s24.3 12.07 24.3 26.9v5.2a3.5 3.5 0 0 1-7 0V41c0-11-7.76-19.9-17.3-19.9s-17.3 8.9-17.3 19.9v20.8a3.5 3.5 0 0 1-3.5 3.5Zm41.6 0a3.5 3.5 0 0 1-3.5-3.5v-5.2a3.5 3.5 0 1 1 7 0v5.2a3.5 3.5 0 0 1-3.5 3.5Z"/>
    <path d="M118.17 65.3a3.5 3.5 0 0 1-3.5-3.5v-5.2a3.5 3.5 0 0 1 7 0v5.2a3.5 3.5 0 0 1-3.5 3.5Zm20.83 0a3.5 3.5 0 0 1-3.5-3.5V43.6c0-5.15-3.16-9.5-6.9-9.5s-6.9 4.35-6.9 9.5v2.6a3.5 3.5 0 0 1-7 0v-2.6c0-9.1 6.23-16.5 13.9-16.5s13.9 7.4 13.9 16.5v18.2a3.5 3.5 0 0 1-3.5 3.5Z"/>
    <path d="M128.57 65.3a3.5 3.5 0 0 1-3.5-3.5v-2.6a3.5 3.5 0 1 1 7 0v2.6a3.5 3.5 0 0 1-3.5 3.5Zm0-13a3.5 3.5 0 0 1-3.5-3.5V41a3.5 3.5 0 0 1 7 0v7.8a3.5 3.5 0 0 1-3.5 3.5Z"/>
    <path d="M128.57 86.1a42.5 42.5 0 1 1 42.5-42.5 42.54 42.54 0 0 1-42.5 42.5Zm0-78a35.5 35.5 0 1 0 35.5 35.5 35.53 35.53 0 0 0-35.5-35.5Z"/>
    <circle cx="106.57" cy="113.93" r="5"/>
    <circle cx="127.57" cy="113.93" r="5"/>
    <circle cx="148.57" cy="113.93" r="5"/>
</svg>
